<svg xmlns="http://www.w3.org/2000/svg" width="40" height="40" viewBox="0 0 40 40" fill="none">
<path d="M14.8477 2.66302C6.05402 2.66302 1.37305 1.04476 1.37305 1.04476L1.37305 37.4074C8.84082 38.7193 12.8854 38.0318 17.0115 37.3305C19.4927 36.9087 22.0034 36.482 25.3056 36.482C34.0994 36.482 38.7803 38.1002 38.7803 38.1002L38.7803 1.73758C31.3126 0.425674 27.268 1.11317 23.1419 1.81451C20.6607 2.23626 18.15 2.66302 14.8477 2.66302Z" fill="#787EFF"></path>
<mask id="mask0" mask-type="alpha" maskUnits="userSpaceOnUse" x="1" y="0" width="38" height="39">
<path d="M14.8477 2.66302C6.05402 2.66302 1.37305 1.04476 1.37305 1.04476L1.37305 37.4074C8.84082 38.7193 12.8854 38.0318 17.0115 37.3305C19.4927 36.9087 22.0034 36.482 25.3056 36.482C34.0994 36.482 38.7803 38.1002 38.7803 38.1002L38.7803 1.73758C31.3126 0.425674 27.268 1.11317 23.1419 1.81451C20.6607 2.23626 18.15 2.66302 14.8477 2.66302Z" fill="#4D44C6"></path>
</mask>
<g mask="url(#mask0)">
<rect x="-3.63672" y="-0.00415039" width="20.0793" height="41.4534" transform="rotate(-6.94165 -3.63672 -0.00415039)" fill="#4D44C6"></rect>
<rect x="3.29199" y="-3.448" width="12.6575" height="51.8273" transform="rotate(-21 3.29199 -3.448)" fill="#4D44C6"></rect>
</g>
<rect x="11" y="21.2902" width="3.43008" height="17.1504" transform="rotate(-90 11 21.2902)" fill="white"></rect>
<rect x="21.291" y="28.1504" width="3.43008" height="17.1504" transform="rotate(180 21.291 28.1504)" fill="white"></rect>
</svg>